<svg width="81" height="24" viewBox="0 0 81 24" fill="none" xmlns="http://www.w3.org/2000/svg">
<path d="M31.638 3.716C30.546 4.86 30 6.45467 30 8.5V20.46H32.444V8.396C32.444 7.16533 32.756 6.17733 33.38 5.432C34.0213 4.66933 34.8967 4.288 36.006 4.288C37.15 4.288 38.0253 4.626 38.632 5.302C39.256 5.96067 39.568 6.81 39.568 7.85C39.568 8.90733 39.23 9.79133 38.554 10.502C37.8953 11.1953 36.9853 11.542 35.824 11.542H33.588V13.83H35.538C36.3527 13.83 37.1327 13.726 37.878 13.518C38.6233 13.31 39.3253 12.9893 39.984 12.556C40.6427 12.1227 41.1627 11.5073 41.544 10.71C41.9427 9.91267 42.142 8.97667 42.142 7.902C42.142 6.186 41.6047 4.77333 40.53 3.664C39.4727 2.55467 37.9733 2 36.032 2C34.212 2 32.7473 2.572 31.638 3.716Z" fill="#00788A"/>
<path d="M44.622 7.98L43.582 10.164H45.714V20.46H48.002V7.98H44.622Z" fill="#00788A"/>
<path d="M45.272 4.418C45.272 4.76467 45.3846 5.08533 45.61 5.38C45.8353 5.65733 46.182 5.796 46.65 5.796C47.118 5.796 47.4646 5.65733 47.69 5.38C47.9153 5.08533 48.028 4.76467 48.028 4.418C48.028 4.07133 47.9153 3.75933 47.69 3.482C47.4646 3.18733 47.118 3.04 46.65 3.04C46.182 3.04 45.8353 3.18733 45.61 3.482C45.3846 3.75933 45.272 4.07133 45.272 4.418Z" fill="#00788A"/>
<path d="M54.2334 10.45C54.5974 10.2593 55.0308 10.164 55.5334 10.164H60.1354V7.98H55.5334C54.3721 7.98 53.3841 8.266 52.5694 8.838C51.7548 9.39267 51.3474 10.1987 51.3474 11.256C51.3474 12.088 51.5814 12.79 52.0494 13.362C52.5348 13.9167 53.1154 14.324 53.7914 14.584C54.4848 14.8267 55.1694 15.0433 55.8454 15.234C56.5388 15.4247 57.1194 15.6587 57.5874 15.936C58.0728 16.2133 58.3154 16.56 58.3154 16.976C58.3154 17.8427 57.5008 18.276 55.8714 18.276H51.3734V20.46H55.8714C59.0608 20.46 60.6554 19.2987 60.6554 16.976C60.6554 16.6467 60.6208 16.3173 60.5514 15.988C60.4821 15.6413 60.3174 15.2947 60.0574 14.948C59.8148 14.584 59.4594 14.298 58.9914 14.09C58.5234 13.882 57.8041 13.622 56.8334 13.31C55.8628 12.998 55.3081 12.8247 55.1694 12.79L54.6234 12.556C54.3981 12.4347 54.2248 12.322 54.1034 12.218C53.9994 12.114 53.9041 11.984 53.8174 11.828C53.7308 11.6547 53.6874 11.464 53.6874 11.256C53.6874 10.9093 53.8694 10.6407 54.2334 10.45Z" fill="#00788A"/>
<path d="M63.2587 7.98L62.2187 10.164H64.3507V20.46H66.6387V7.98H63.2587Z" fill="#00788A"/>
<path d="M63.9087 4.418C63.9087 4.76467 64.0213 5.08533 64.2467 5.38C64.472 5.65733 64.8187 5.796 65.2867 5.796C65.7547 5.796 66.1013 5.65733 66.3267 5.38C66.552 5.08533 66.6647 4.76467 66.6647 4.418C66.6647 4.07133 66.552 3.75933 66.3267 3.482C66.1013 3.18733 65.7547 3.04 65.2867 3.04C64.8187 3.04 64.472 3.18733 64.2467 3.482C64.0213 3.75933 63.9087 4.07133 63.9087 4.418Z" fill="#00788A"/>
<path d="M76.7961 13.96C78.6681 12.556 79.6041 10.684 79.6041 8.344V7.98H77.3161V8.344C77.3161 10.4413 76.3888 11.9233 74.5341 12.79C73.6328 12.3393 72.9395 11.7067 72.4541 10.892C71.9861 10.0773 71.7521 9.176 71.7521 8.188V7.98H69.4641V8.188C69.4641 10.632 70.4001 12.556 72.2721 13.96C70.4001 15.3467 69.4641 17.2533 69.4641 19.68V20.46H71.7521V19.68C71.7521 18.692 71.9861 17.7907 72.4541 16.976C72.9395 16.1613 73.6328 15.5373 74.5341 15.104C75.4528 15.52 76.1461 16.118 76.6141 16.898C77.0821 17.678 77.3161 18.5533 77.3161 19.524V20.46H79.6041V19.524C79.6041 18.432 79.3615 17.4007 78.8761 16.43C78.3908 15.442 77.6975 14.6187 76.7961 13.96Z" fill="#00788A"/>
<path d="M31.638 3.716C30.546 4.86 30 6.45467 30 8.5V20.46H32.444V8.396C32.444 7.16533 32.756 6.17733 33.38 5.432C34.0213 4.66933 34.8967 4.288 36.006 4.288C37.15 4.288 38.0253 4.626 38.632 5.302C39.256 5.96067 39.568 6.81 39.568 7.85C39.568 8.90733 39.23 9.79133 38.554 10.502C37.8953 11.1953 36.9853 11.542 35.824 11.542H33.588V13.83H35.538C36.3527 13.83 37.1327 13.726 37.878 13.518C38.6233 13.31 39.3253 12.9893 39.984 12.556C40.6427 12.1227 41.1627 11.5073 41.544 10.71C41.9427 9.91267 42.142 8.97667 42.142 7.902C42.142 6.186 41.6047 4.77333 40.53 3.664C39.4727 2.55467 37.9733 2 36.032 2C34.212 2 32.7473 2.572 31.638 3.716Z" stroke="#00788A"/>
<path d="M44.622 7.98L43.582 10.164H45.714V20.46H48.002V7.98H44.622Z" stroke="#00788A"/>
<path d="M45.272 4.418C45.272 4.76467 45.3846 5.08533 45.61 5.38C45.8353 5.65733 46.182 5.796 46.65 5.796C47.118 5.796 47.4646 5.65733 47.69 5.38C47.9153 5.08533 48.028 4.76467 48.028 4.418C48.028 4.07133 47.9153 3.75933 47.69 3.482C47.4646 3.18733 47.118 3.04 46.65 3.04C46.182 3.04 45.8353 3.18733 45.61 3.482C45.3846 3.75933 45.272 4.07133 45.272 4.418Z" stroke="#00788A"/>
<path d="M54.2334 10.45C54.5974 10.2593 55.0308 10.164 55.5334 10.164H60.1354V7.98H55.5334C54.3721 7.98 53.3841 8.266 52.5694 8.838C51.7548 9.39267 51.3474 10.1987 51.3474 11.256C51.3474 12.088 51.5814 12.79 52.0494 13.362C52.5348 13.9167 53.1154 14.324 53.7914 14.584C54.4848 14.8267 55.1694 15.0433 55.8454 15.234C56.5388 15.4247 57.1194 15.6587 57.5874 15.936C58.0728 16.2133 58.3154 16.56 58.3154 16.976C58.3154 17.8427 57.5008 18.276 55.8714 18.276H51.3734V20.46H55.8714C59.0608 20.46 60.6554 19.2987 60.6554 16.976C60.6554 16.6467 60.6208 16.3173 60.5514 15.988C60.4821 15.6413 60.3174 15.2947 60.0574 14.948C59.8148 14.584 59.4594 14.298 58.9914 14.09C58.5234 13.882 57.8041 13.622 56.8334 13.31C55.8628 12.998 55.3081 12.8247 55.1694 12.79L54.6234 12.556C54.3981 12.4347 54.2248 12.322 54.1034 12.218C53.9994 12.114 53.9041 11.984 53.8174 11.828C53.7308 11.6547 53.6874 11.464 53.6874 11.256C53.6874 10.9093 53.8694 10.6407 54.2334 10.45Z" stroke="#00788A"/>
<path d="M63.2587 7.98L62.2187 10.164H64.3507V20.46H66.6387V7.98H63.2587Z" stroke="#00788A"/>
<path d="M63.9087 4.418C63.9087 4.76467 64.0213 5.08533 64.2467 5.38C64.472 5.65733 64.8187 5.796 65.2867 5.796C65.7547 5.796 66.1013 5.65733 66.3267 5.38C66.552 5.08533 66.6647 4.76467 66.6647 4.418C66.6647 4.07133 66.552 3.75933 66.3267 3.482C66.1013 3.18733 65.7547 3.04 65.2867 3.04C64.8187 3.04 64.472 3.18733 64.2467 3.482C64.0213 3.75933 63.9087 4.07133 63.9087 4.418Z" stroke="#00788A"/>
<path d="M76.7961 13.96C78.6681 12.556 79.6041 10.684 79.6041 8.344V7.98H77.3161V8.344C77.3161 10.4413 76.3888 11.9233 74.5341 12.79C73.6328 12.3393 72.9395 11.7067 72.4541 10.892C71.9861 10.0773 71.7521 9.176 71.7521 8.188V7.98H69.4641V8.188C69.4641 10.632 70.4001 12.556 72.2721 13.96C70.4001 15.3467 69.4641 17.2533 69.4641 19.68V20.46H71.7521V19.68C71.7521 18.692 71.9861 17.7907 72.4541 16.976C72.9395 16.1613 73.6328 15.5373 74.5341 15.104C75.4528 15.52 76.1461 16.118 76.6141 16.898C77.0821 17.678 77.3161 18.5533 77.3161 19.524V20.46H79.6041V19.524C79.6041 18.432 79.3615 17.4007 78.8761 16.43C78.3908 15.442 77.6975 14.6187 76.7961 13.96Z" stroke="#00788A"/>
<rect width="24" height="24" rx="5" fill="#74DCDF"/>
<path d="M13.632 18.1467C14.304 17.6427 14.64 16.9707 14.64 16.1307V16H13.8187V16.1307C13.8187 16.8836 13.4858 17.4156 12.82 17.7267C12.4964 17.5649 12.2476 17.3378 12.0733 17.0453C11.9053 16.7529 11.8213 16.4293 11.8213 16.0747V16H11V16.0747C11 16.952 11.336 17.6427 12.008 18.1467C11.336 18.6444 11 19.3289 11 20.2V20.48H11.8213V20.2C11.8213 19.8453 11.9053 19.5218 12.0733 19.2293C12.2476 18.9369 12.4964 18.7129 12.82 18.5573C13.1498 18.7067 13.3987 18.9213 13.5667 19.2013C13.7347 19.4813 13.8187 19.7956 13.8187 20.144V20.48H14.64V20.144C14.64 19.752 14.5529 19.3818 14.3787 19.0333C14.2044 18.6787 13.9556 18.3831 13.632 18.1467Z" fill="#00788A" stroke="#00788A" stroke-width="0.358974"/>
<path d="M8.11831 5.53008C7.14462 6.55014 6.65778 7.97204 6.65778 9.79578V20.46H8.83699V9.70304C8.83699 8.60571 9.11518 7.72475 9.67158 7.06017C10.2434 6.38013 11.0239 6.04011 12.0131 6.04011C13.0331 6.04011 13.8136 6.34149 14.3546 6.94425C14.911 7.53156 15.1892 8.28887 15.1892 9.2162C15.1892 10.159 14.8878 10.9472 14.285 11.5809C13.6977 12.1991 12.8863 12.5082 11.8508 12.5082H9.85704V14.5483H11.5958C12.3222 14.5483 13.0177 14.4556 13.6823 14.2701C14.3468 14.0846 14.9728 13.7987 15.5601 13.4123C16.1474 13.026 16.6111 12.4773 16.9511 11.7663C17.3065 11.0554 17.4843 10.2208 17.4843 9.26256C17.4843 7.73248 17.0052 6.47286 16.0469 5.48372C15.1042 4.49457 13.7673 4 12.0363 4C10.4134 4 9.10746 4.51003 8.11831 5.53008Z" fill="#00788A" stroke="#00788A" stroke-width="0.891658"/>
</svg>
